<svg width="40" height="41" viewBox="0 0 40 41" fill="none" xmlns="http://www.w3.org/2000/svg">
<path fill-rule="evenodd" clip-rule="evenodd" d="M31.5 4.56799V10.5756C22.5775 10.4375 14.1209 8.45568 7.87399 5.07195C7.86254 5.06575 7.8511 5.05954 7.83967 5.05333C11.2093 2.46903 15.4253 0.933105 20 0.933105C24.2806 0.933105 28.247 2.27787 31.5 4.56799ZM33.5 6.17659V10.5756C34.6829 10.5573 35.8576 10.5066 37.02 10.4245C36.0457 8.84991 34.8591 7.42061 33.5 6.17659ZM38.0693 12.3489C36.5626 12.4765 35.0366 12.5527 33.5 12.5758L33.5 22.4242C35.658 22.4566 37.8034 22.594 39.9109 22.8338C39.9698 22.2082 40 21.5742 40 20.9331C40 17.8607 39.3072 14.95 38.0693 12.3489ZM39.6237 24.814C37.6123 24.5872 35.5631 24.4564 33.5 24.4244V35.6896C36.5869 32.864 38.7843 29.0826 39.6237 24.814ZM31.5 37.2982V24.4244C27.2492 24.4903 23.0576 24.9758 19.1337 25.8561C14.901 26.8058 11.0767 28.1933 7.87399 29.9281C6.33707 30.7606 4.96378 31.6619 3.76556 32.6165C7.39721 37.6539 13.3157 40.9331 20 40.9331C24.2806 40.9331 28.247 39.5883 31.5 37.2982ZM2.67391 30.9301C0.97328 27.989 0 24.5747 0 20.9331C0 15.229 2.38791 10.0827 6.21862 6.43914C6.44957 6.57137 6.68386 6.70185 6.92143 6.83053C13.5176 10.4034 22.3175 12.4379 31.5 12.5758L31.5 22.4242C27.1088 22.4902 22.7696 22.9906 18.6958 23.9047C14.3144 24.8877 10.3117 26.3331 6.92142 28.1695C5.36103 29.0147 3.93884 29.9382 2.67391 30.9301Z" fill="#782652"/>
</svg>
